<mxfile host="Electron" modified="2024-06-30T12:50:32.846Z" agent="Mozilla/5.0 (Windows NT 10.0; Win64; x64) AppleWebKit/537.36 (KHTML, like Gecko) draw.io/24.6.4 Chrome/124.0.6367.207 Electron/30.0.6 Safari/537.36" etag="qerYyRco317Cp2hI0wTM" version="24.6.4" type="device">
  <diagram name="PÃ¡gina-1" id="v0YQfF3_v35_bUU9CeJE">
    <mxGraphModel dx="2887" dy="840" grid="1" gridSize="10" guides="1" tooltips="1" connect="1" arrows="1" fold="1" page="1" pageScale="1" pageWidth="827" pageHeight="1169" math="0" shadow="0">
      <root>
        <mxCell id="0" />
        <mxCell id="1" parent="0" />
        <mxCell id="vodeuPLthpt6Yk75W0Qk-80" style="edgeStyle=orthogonalEdgeStyle;rounded=0;orthogonalLoop=1;jettySize=auto;html=1;entryX=0;entryY=0.5;entryDx=0;entryDy=0;" parent="1" source="vodeuPLthpt6Yk75W0Qk-18" target="vodeuPLthpt6Yk75W0Qk-79" edge="1">
          <mxGeometry relative="1" as="geometry" />
        </mxCell>
        <mxCell id="vodeuPLthpt6Yk75W0Qk-18" value="Posts" style="swimlane;whiteSpace=wrap;html=1;" parent="1" vertex="1">
          <mxGeometry x="330" y="520" width="210" height="270" as="geometry" />
        </mxCell>
        <mxCell id="vodeuPLthpt6Yk75W0Qk-32" value="Id - Guid - Primary Key" style="text;strokeColor=none;fillColor=none;align=left;verticalAlign=middle;spacingLeft=4;spacingRight=4;overflow=hidden;points=[[0,0.5],[1,0.5]];portConstraint=eastwest;rotatable=0;whiteSpace=wrap;html=1;" parent="vodeuPLthpt6Yk75W0Qk-18" vertex="1">
          <mxGeometry y="30" width="200" height="30" as="geometry" />
        </mxCell>
        <mxCell id="vodeuPLthpt6Yk75W0Qk-46" value="IsPublished - Bool" style="text;strokeColor=none;fillColor=none;align=left;verticalAlign=middle;spacingLeft=4;spacingRight=4;overflow=hidden;points=[[0,0.5],[1,0.5]];portConstraint=eastwest;rotatable=0;whiteSpace=wrap;html=1;" parent="vodeuPLthpt6Yk75W0Qk-18" vertex="1">
          <mxGeometry y="180" width="200" height="30" as="geometry" />
        </mxCell>
        <mxCell id="vodeuPLthpt6Yk75W0Qk-45" value="UserId - Guid - Foreign Key" style="text;strokeColor=none;fillColor=none;align=left;verticalAlign=middle;spacingLeft=4;spacingRight=4;overflow=hidden;points=[[0,0.5],[1,0.5]];portConstraint=eastwest;rotatable=0;whiteSpace=wrap;html=1;" parent="vodeuPLthpt6Yk75W0Qk-18" vertex="1">
          <mxGeometry y="60" width="200" height="30" as="geometry" />
        </mxCell>
        <mxCell id="vodeuPLthpt6Yk75W0Qk-43" value="Content - Text" style="text;strokeColor=none;fillColor=none;align=left;verticalAlign=middle;spacingLeft=4;spacingRight=4;overflow=hidden;points=[[0,0.5],[1,0.5]];portConstraint=eastwest;rotatable=0;whiteSpace=wrap;html=1;" parent="vodeuPLthpt6Yk75W0Qk-18" vertex="1">
          <mxGeometry y="120" width="200" height="30" as="geometry" />
        </mxCell>
        <mxCell id="vodeuPLthpt6Yk75W0Qk-44" value="PublicationDate - DateTime" style="text;strokeColor=none;fillColor=none;align=left;verticalAlign=middle;spacingLeft=4;spacingRight=4;overflow=hidden;points=[[0,0.5],[1,0.5]];portConstraint=eastwest;rotatable=0;whiteSpace=wrap;html=1;" parent="vodeuPLthpt6Yk75W0Qk-18" vertex="1">
          <mxGeometry y="150" width="200" height="30" as="geometry" />
        </mxCell>
        <mxCell id="vodeuPLthpt6Yk75W0Qk-42" value="Title - String" style="text;strokeColor=none;fillColor=none;align=left;verticalAlign=middle;spacingLeft=4;spacingRight=4;overflow=hidden;points=[[0,0.5],[1,0.5]];portConstraint=eastwest;rotatable=0;whiteSpace=wrap;html=1;" parent="vodeuPLthpt6Yk75W0Qk-18" vertex="1">
          <mxGeometry y="90" width="200" height="30" as="geometry" />
        </mxCell>
        <mxCell id="vodeuPLthpt6Yk75W0Qk-76" style="edgeStyle=orthogonalEdgeStyle;rounded=0;orthogonalLoop=1;jettySize=auto;html=1;entryX=1;entryY=0.5;entryDx=0;entryDy=0;" parent="1" source="vodeuPLthpt6Yk75W0Qk-19" target="vodeuPLthpt6Yk75W0Qk-75" edge="1">
          <mxGeometry relative="1" as="geometry" />
        </mxCell>
        <mxCell id="vodeuPLthpt6Yk75W0Qk-19" value="Users" style="swimlane;whiteSpace=wrap;html=1;startSize=23;" parent="1" vertex="1">
          <mxGeometry x="720" y="70" width="201" height="290" as="geometry">
            <mxRectangle x="720" y="70" width="70" height="30" as="alternateBounds" />
          </mxGeometry>
        </mxCell>
        <mxCell id="vodeuPLthpt6Yk75W0Qk-28" value="Id - Guid - Primary Key" style="text;strokeColor=none;fillColor=none;align=left;verticalAlign=middle;spacingLeft=4;spacingRight=4;overflow=hidden;points=[[0,0.5],[1,0.5]];portConstraint=eastwest;rotatable=0;whiteSpace=wrap;html=1;" parent="vodeuPLthpt6Yk75W0Qk-19" vertex="1">
          <mxGeometry y="30" width="200" height="30" as="geometry" />
        </mxCell>
        <mxCell id="vodeuPLthpt6Yk75W0Qk-29" value="FirstName - String&amp;nbsp;" style="text;strokeColor=none;fillColor=none;align=left;verticalAlign=middle;spacingLeft=4;spacingRight=4;overflow=hidden;points=[[0,0.5],[1,0.5]];portConstraint=eastwest;rotatable=0;whiteSpace=wrap;html=1;" parent="vodeuPLthpt6Yk75W0Qk-19" vertex="1">
          <mxGeometry y="60" width="200" height="30" as="geometry" />
        </mxCell>
        <mxCell id="vodeuPLthpt6Yk75W0Qk-31" value="LasttName - String" style="text;strokeColor=none;fillColor=none;align=left;verticalAlign=middle;spacingLeft=4;spacingRight=4;overflow=hidden;points=[[0,0.5],[1,0.5]];portConstraint=eastwest;rotatable=0;whiteSpace=wrap;html=1;" parent="vodeuPLthpt6Yk75W0Qk-19" vertex="1">
          <mxGeometry x="1" y="90" width="200" height="30" as="geometry" />
        </mxCell>
        <mxCell id="vodeuPLthpt6Yk75W0Qk-34" value="UserName - String - Unique" style="text;strokeColor=none;fillColor=none;align=left;verticalAlign=middle;spacingLeft=4;spacingRight=4;overflow=hidden;points=[[0,0.5],[1,0.5]];portConstraint=eastwest;rotatable=0;whiteSpace=wrap;html=1;" parent="vodeuPLthpt6Yk75W0Qk-19" vertex="1">
          <mxGeometry x="1" y="150" width="200" height="30" as="geometry" />
        </mxCell>
        <mxCell id="vodeuPLthpt6Yk75W0Qk-35" value="PasswordHash - String" style="text;strokeColor=none;fillColor=none;align=left;verticalAlign=middle;spacingLeft=4;spacingRight=4;overflow=hidden;points=[[0,0.5],[1,0.5]];portConstraint=eastwest;rotatable=0;whiteSpace=wrap;html=1;" parent="vodeuPLthpt6Yk75W0Qk-19" vertex="1">
          <mxGeometry y="180" width="200" height="30" as="geometry" />
        </mxCell>
        <mxCell id="vodeuPLthpt6Yk75W0Qk-36" value="Role - String" style="text;strokeColor=none;fillColor=none;align=left;verticalAlign=middle;spacingLeft=4;spacingRight=4;overflow=hidden;points=[[0,0.5],[1,0.5]];portConstraint=eastwest;rotatable=0;whiteSpace=wrap;html=1;" parent="vodeuPLthpt6Yk75W0Qk-19" vertex="1">
          <mxGeometry x="1" y="240" width="200" height="30" as="geometry" />
        </mxCell>
        <mxCell id="vodeuPLthpt6Yk75W0Qk-37" value="PasswordSalt - String" style="text;strokeColor=none;fillColor=none;align=left;verticalAlign=middle;spacingLeft=4;spacingRight=4;overflow=hidden;points=[[0,0.5],[1,0.5]];portConstraint=eastwest;rotatable=0;whiteSpace=wrap;html=1;" parent="vodeuPLthpt6Yk75W0Qk-19" vertex="1">
          <mxGeometry x="1" y="210" width="200" height="30" as="geometry" />
        </mxCell>
        <mxCell id="vodeuPLthpt6Yk75W0Qk-38" value="Email - String - Unique" style="text;strokeColor=none;fillColor=none;align=left;verticalAlign=middle;spacingLeft=4;spacingRight=4;overflow=hidden;points=[[0,0.5],[1,0.5]];portConstraint=eastwest;rotatable=0;whiteSpace=wrap;html=1;" parent="vodeuPLthpt6Yk75W0Qk-19" vertex="1">
          <mxGeometry x="1" y="120" width="200" height="30" as="geometry" />
        </mxCell>
        <mxCell id="vodeuPLthpt6Yk75W0Qk-24" value="Comments" style="swimlane;whiteSpace=wrap;html=1;" parent="1" vertex="1">
          <mxGeometry x="1170" y="520" width="200" height="270" as="geometry" />
        </mxCell>
        <mxCell id="vodeuPLthpt6Yk75W0Qk-33" value="Id - Guid - Primary Key" style="text;strokeColor=none;fillColor=none;align=left;verticalAlign=middle;spacingLeft=4;spacingRight=4;overflow=hidden;points=[[0,0.5],[1,0.5]];portConstraint=eastwest;rotatable=0;whiteSpace=wrap;html=1;" parent="vodeuPLthpt6Yk75W0Qk-24" vertex="1">
          <mxGeometry y="30" width="200" height="30" as="geometry" />
        </mxCell>
        <mxCell id="vodeuPLthpt6Yk75W0Qk-47" value="UserId - Guid - Foreign Key" style="text;strokeColor=none;fillColor=none;align=left;verticalAlign=middle;spacingLeft=4;spacingRight=4;overflow=hidden;points=[[0,0.5],[1,0.5]];portConstraint=eastwest;rotatable=0;whiteSpace=wrap;html=1;" parent="vodeuPLthpt6Yk75W0Qk-24" vertex="1">
          <mxGeometry y="60" width="200" height="30" as="geometry" />
        </mxCell>
        <mxCell id="vodeuPLthpt6Yk75W0Qk-49" value="PostId- Guid - Foreign Key" style="text;strokeColor=none;fillColor=none;align=left;verticalAlign=middle;spacingLeft=4;spacingRight=4;overflow=hidden;points=[[0,0.5],[1,0.5]];portConstraint=eastwest;rotatable=0;whiteSpace=wrap;html=1;" parent="vodeuPLthpt6Yk75W0Qk-24" vertex="1">
          <mxGeometry y="90" width="200" height="30" as="geometry" />
        </mxCell>
        <mxCell id="vodeuPLthpt6Yk75W0Qk-50" value="Comment - String" style="text;strokeColor=none;fillColor=none;align=left;verticalAlign=middle;spacingLeft=4;spacingRight=4;overflow=hidden;points=[[0,0.5],[1,0.5]];portConstraint=eastwest;rotatable=0;whiteSpace=wrap;html=1;" parent="vodeuPLthpt6Yk75W0Qk-24" vertex="1">
          <mxGeometry y="120" width="200" height="30" as="geometry" />
        </mxCell>
        <mxCell id="vodeuPLthpt6Yk75W0Qk-51" value="PublicationDate - DateTime" style="text;strokeColor=none;fillColor=none;align=left;verticalAlign=middle;spacingLeft=4;spacingRight=4;overflow=hidden;points=[[0,0.5],[1,0.5]];portConstraint=eastwest;rotatable=0;whiteSpace=wrap;html=1;" parent="vodeuPLthpt6Yk75W0Qk-24" vertex="1">
          <mxGeometry y="150" width="200" height="30" as="geometry" />
        </mxCell>
        <mxCell id="NpsZ0kKzrg4ry88EPNaZ-24" style="edgeStyle=orthogonalEdgeStyle;rounded=0;orthogonalLoop=1;jettySize=auto;html=1;entryX=0.5;entryY=0;entryDx=0;entryDy=0;" edge="1" parent="1" source="vodeuPLthpt6Yk75W0Qk-55" target="NpsZ0kKzrg4ry88EPNaZ-23">
          <mxGeometry relative="1" as="geometry" />
        </mxCell>
        <mxCell id="vodeuPLthpt6Yk75W0Qk-55" value="Tags" style="swimlane;whiteSpace=wrap;html=1;startSize=23;" parent="1" vertex="1">
          <mxGeometry x="110" y="65" width="200" height="280" as="geometry" />
        </mxCell>
        <mxCell id="vodeuPLthpt6Yk75W0Qk-62" value="Id - Guid - Primary Key" style="text;strokeColor=none;fillColor=none;align=left;verticalAlign=middle;spacingLeft=4;spacingRight=4;overflow=hidden;points=[[0,0.5],[1,0.5]];portConstraint=eastwest;rotatable=0;whiteSpace=wrap;html=1;" parent="vodeuPLthpt6Yk75W0Qk-55" vertex="1">
          <mxGeometry y="25" width="200" height="30" as="geometry" />
        </mxCell>
        <mxCell id="vodeuPLthpt6Yk75W0Qk-64" value="Name - String" style="text;strokeColor=none;fillColor=none;align=left;verticalAlign=middle;spacingLeft=4;spacingRight=4;overflow=hidden;points=[[0,0.5],[1,0.5]];portConstraint=eastwest;rotatable=0;whiteSpace=wrap;html=1;" parent="vodeuPLthpt6Yk75W0Qk-55" vertex="1">
          <mxGeometry y="55" width="200" height="30" as="geometry" />
        </mxCell>
        <mxCell id="vodeuPLthpt6Yk75W0Qk-74" style="edgeStyle=orthogonalEdgeStyle;rounded=0;orthogonalLoop=1;jettySize=auto;html=1;entryX=0.5;entryY=0;entryDx=0;entryDy=0;" parent="1" source="vodeuPLthpt6Yk75W0Qk-72" target="vodeuPLthpt6Yk75W0Qk-24" edge="1">
          <mxGeometry relative="1" as="geometry" />
        </mxCell>
        <mxCell id="vodeuPLthpt6Yk75W0Qk-72" value="Faz" style="shape=rhombus;perimeter=rhombusPerimeter;whiteSpace=wrap;html=1;align=center;" parent="1" vertex="1">
          <mxGeometry x="1210" y="175" width="120" height="60" as="geometry" />
        </mxCell>
        <mxCell id="vodeuPLthpt6Yk75W0Qk-73" style="edgeStyle=orthogonalEdgeStyle;rounded=0;orthogonalLoop=1;jettySize=auto;html=1;" parent="1" source="vodeuPLthpt6Yk75W0Qk-38" target="vodeuPLthpt6Yk75W0Qk-72" edge="1">
          <mxGeometry relative="1" as="geometry" />
        </mxCell>
        <mxCell id="vodeuPLthpt6Yk75W0Qk-77" style="edgeStyle=orthogonalEdgeStyle;rounded=0;orthogonalLoop=1;jettySize=auto;html=1;entryX=0.5;entryY=0;entryDx=0;entryDy=0;" parent="1" source="vodeuPLthpt6Yk75W0Qk-75" target="vodeuPLthpt6Yk75W0Qk-18" edge="1">
          <mxGeometry relative="1" as="geometry" />
        </mxCell>
        <mxCell id="vodeuPLthpt6Yk75W0Qk-75" value="Realiza" style="shape=rhombus;perimeter=rhombusPerimeter;whiteSpace=wrap;html=1;align=center;" parent="1" vertex="1">
          <mxGeometry x="375" y="185" width="120" height="60" as="geometry" />
        </mxCell>
        <mxCell id="vodeuPLthpt6Yk75W0Qk-78" value="Relationship" style="shape=rhombus;double=1;perimeter=rhombusPerimeter;whiteSpace=wrap;html=1;align=center;" parent="1" vertex="1">
          <mxGeometry x="2460" y="1370" width="120" height="60" as="geometry" />
        </mxCell>
        <mxCell id="vodeuPLthpt6Yk75W0Qk-81" style="edgeStyle=orthogonalEdgeStyle;rounded=0;orthogonalLoop=1;jettySize=auto;html=1;entryX=0;entryY=0.5;entryDx=0;entryDy=0;" parent="1" source="vodeuPLthpt6Yk75W0Qk-79" target="vodeuPLthpt6Yk75W0Qk-50" edge="1">
          <mxGeometry relative="1" as="geometry" />
        </mxCell>
        <mxCell id="vodeuPLthpt6Yk75W0Qk-79" value="Possui" style="shape=rhombus;double=1;perimeter=rhombusPerimeter;whiteSpace=wrap;html=1;align=center;" parent="1" vertex="1">
          <mxGeometry x="780" y="625" width="120" height="60" as="geometry" />
        </mxCell>
        <mxCell id="NpsZ0kKzrg4ry88EPNaZ-22" style="edgeStyle=orthogonalEdgeStyle;rounded=0;orthogonalLoop=1;jettySize=auto;html=1;entryX=1;entryY=0.5;entryDx=0;entryDy=0;" edge="1" parent="1" source="vodeuPLthpt6Yk75W0Qk-82" target="NpsZ0kKzrg4ry88EPNaZ-13">
          <mxGeometry relative="1" as="geometry" />
        </mxCell>
        <mxCell id="vodeuPLthpt6Yk75W0Qk-82" value="ContÃ©m" style="shape=rhombus;double=1;perimeter=rhombusPerimeter;whiteSpace=wrap;html=1;align=center;" parent="1" vertex="1">
          <mxGeometry x="130" y="625" width="120" height="60" as="geometry" />
        </mxCell>
        <mxCell id="NpsZ0kKzrg4ry88EPNaZ-13" value="PostTags" style="swimlane;whiteSpace=wrap;html=1;" vertex="1" parent="1">
          <mxGeometry x="-140" y="520" width="210" height="270" as="geometry" />
        </mxCell>
        <mxCell id="NpsZ0kKzrg4ry88EPNaZ-14" value="PostId - Primary Key - Foreign Key" style="text;strokeColor=none;fillColor=none;align=left;verticalAlign=middle;spacingLeft=4;spacingRight=4;overflow=hidden;points=[[0,0.5],[1,0.5]];portConstraint=eastwest;rotatable=0;whiteSpace=wrap;html=1;" vertex="1" parent="NpsZ0kKzrg4ry88EPNaZ-13">
          <mxGeometry y="30" width="200" height="30" as="geometry" />
        </mxCell>
        <mxCell id="NpsZ0kKzrg4ry88EPNaZ-16" value="TagId - Primary Key - Foreign Key" style="text;strokeColor=none;fillColor=none;align=left;verticalAlign=middle;spacingLeft=4;spacingRight=4;overflow=hidden;points=[[0,0.5],[1,0.5]];portConstraint=eastwest;rotatable=0;whiteSpace=wrap;html=1;" vertex="1" parent="NpsZ0kKzrg4ry88EPNaZ-13">
          <mxGeometry y="60" width="200" height="30" as="geometry" />
        </mxCell>
        <mxCell id="NpsZ0kKzrg4ry88EPNaZ-21" style="edgeStyle=orthogonalEdgeStyle;rounded=0;orthogonalLoop=1;jettySize=auto;html=1;entryX=1;entryY=0.5;entryDx=0;entryDy=0;" edge="1" parent="1" source="vodeuPLthpt6Yk75W0Qk-43" target="vodeuPLthpt6Yk75W0Qk-82">
          <mxGeometry relative="1" as="geometry" />
        </mxCell>
        <mxCell id="NpsZ0kKzrg4ry88EPNaZ-25" style="edgeStyle=orthogonalEdgeStyle;rounded=0;orthogonalLoop=1;jettySize=auto;html=1;" edge="1" parent="1" source="NpsZ0kKzrg4ry88EPNaZ-23" target="NpsZ0kKzrg4ry88EPNaZ-13">
          <mxGeometry relative="1" as="geometry" />
        </mxCell>
        <mxCell id="NpsZ0kKzrg4ry88EPNaZ-23" value="ContÃ©m" style="shape=rhombus;double=1;perimeter=rhombusPerimeter;whiteSpace=wrap;html=1;align=center;" vertex="1" parent="1">
          <mxGeometry x="-95" y="340" width="120" height="60" as="geometry" />
        </mxCell>
      </root>
    </mxGraphModel>
  </diagram>
</mxfile>
